<svg width="25" height="25" viewBox="0 0 25 25" fill="none" xmlns="http://www.w3.org/2000/svg">
<path d="M13.3029 8.27089C13.562 7.94768 13.51 7.47566 13.1868 7.21662C12.8635 6.95757 12.3915 7.00959 12.1325 7.3328L13.3029 8.27089ZM6.57396 15.4675L7.14199 15.9572C7.14785 15.9504 7.15358 15.9435 7.15919 15.9365L6.57396 15.4675ZM6.39583 15.9029L5.64729 15.8541L5.64664 15.8682L6.39583 15.9029ZM6.25 19.0518L5.5008 19.0172C5.49908 19.0544 5.50013 19.0917 5.50396 19.1288L6.25 19.0518ZM7.06979 19.7675L7.09431 20.5171C7.14433 20.5154 7.19406 20.5088 7.24275 20.4973L7.06979 19.7675ZM10.1948 19.0268L10.3678 19.7567L10.3794 19.7538L10.1948 19.0268ZM10.5958 18.7727L11.1744 19.25L11.1809 19.2419L10.5958 18.7727ZM17.4726 11.3961C17.7317 11.0729 17.6798 10.6009 17.3567 10.3417C17.0336 10.0826 16.5615 10.1345 16.3024 10.4576L17.4726 11.3961ZM12.1358 7.33261C11.8766 7.65573 11.9285 8.12777 12.2516 8.38692C12.5747 8.64608 13.0468 8.59422 13.3059 8.27109L12.1358 7.33261ZM14.375 5.73935L14.9601 6.20859C14.9699 6.1963 14.9794 6.1837 14.9885 6.17081L14.375 5.73935ZM16.0719 5.40601L16.5517 4.82957C16.5278 4.80969 16.5027 4.79132 16.4765 4.77455L16.0719 5.40601ZM18.4021 7.3456L18.9329 6.81576C18.9166 6.79945 18.8996 6.7839 18.8819 6.76916L18.4021 7.3456ZM18.7531 8.20068L19.503 8.2048V8.2048L18.7531 8.20068ZM18.3927 9.05185L17.8677 8.51621C17.8465 8.53704 17.8265 8.55912 17.8078 8.58234L18.3927 9.05185ZM16.3026 10.4573C16.0433 10.7803 16.095 11.2524 16.418 11.5117C16.741 11.771 17.2131 11.7194 17.4724 11.3964L16.3026 10.4573ZM13.4626 7.6907C13.4012 7.28106 13.0193 6.99874 12.6097 7.06013C12.2 7.12152 11.9177 7.50336 11.9791 7.913L13.4626 7.6907ZM16.9885 11.67C17.3989 11.6143 17.6864 11.2363 17.6307 10.8259C17.5749 10.4154 17.197 10.1279 16.7865 10.1837L16.9885 11.67ZM12.1325 7.3328L5.98873 14.9984L7.15919 15.9365L13.3029 8.27089L12.1325 7.3328ZM6.00593 14.9777C5.79436 15.2231 5.66851 15.5308 5.64742 15.8541L7.14424 15.9517C7.14411 15.9537 7.14332 15.9557 7.14199 15.9572L6.00593 14.9777ZM5.64664 15.8682L5.5008 19.0172L6.9992 19.0865L7.14503 15.9376L5.64664 15.8682ZM5.50396 19.1288C5.58735 19.9373 6.28192 20.5436 7.09431 20.5171L7.04527 19.0179C7.02012 19.0187 6.99862 18.9999 6.99604 18.9749L5.50396 19.1288ZM7.24275 20.4973L10.3678 19.7566L10.0218 18.2971L6.89683 19.0377L7.24275 20.4973ZM10.3794 19.7538C10.6912 19.6746 10.9697 19.4981 11.1744 19.2499L10.0173 18.2954C10.0155 18.2976 10.013 18.2992 10.0102 18.2999L10.3794 19.7538ZM11.1809 19.2419L17.4726 11.3961L16.3024 10.4576L10.0107 18.3035L11.1809 19.2419ZM13.3059 8.27109L14.9601 6.20859L13.7899 5.27011L12.1358 7.33261L13.3059 8.27109ZM14.9885 6.17081C15.1425 5.95179 15.4418 5.893 15.6672 6.03748L16.4765 4.77455C15.5747 4.19664 14.3777 4.43178 13.7615 5.30788L14.9885 6.17081ZM15.5921 5.98246L17.9223 7.92204L18.8819 6.76916L16.5517 4.82957L15.5921 5.98246ZM17.8713 7.87544C17.9563 7.96061 18.0037 8.07622 18.0031 8.19656L19.503 8.2048C19.5059 7.68427 19.3006 7.18417 18.9329 6.81576L17.8713 7.87544ZM18.0031 8.19656C18.0024 8.31689 17.9537 8.43198 17.8677 8.51621L18.9177 9.58749C19.2894 9.22314 19.5002 8.72533 19.503 8.2048L18.0031 8.19656ZM17.8078 8.58234L16.3026 10.4573L17.4724 11.3964L18.9776 9.52136L17.8078 8.58234ZM11.9791 7.913C12.3405 10.3245 14.5722 11.9983 16.9885 11.67L16.7865 10.1837C15.1832 10.4015 13.7023 9.29087 13.4626 7.6907L11.9791 7.913Z" fill="#B3B7EE"/>
</svg>
