<svg width="25" height="25" viewBox="0 0 25 25" fill="none" xmlns="http://www.w3.org/2000/svg">
<path fill-rule="evenodd" clip-rule="evenodd" d="M16.8406 9.37512H8.15936C7.68014 9.37512 7.29166 9.76361 7.29166 10.2428V17.1876C7.29166 18.6259 8.45758 19.7918 9.89582 19.7918H15.1042C15.7948 19.7918 16.4572 19.5174 16.9456 19.029C17.434 18.5407 17.7083 17.8783 17.7083 17.1876V10.2428C17.7083 9.76361 17.3198 9.37512 16.8406 9.37512Z" stroke="#B3B7EE" stroke-width="1.5" stroke-linecap="round" stroke-linejoin="round"/>
<path fill-rule="evenodd" clip-rule="evenodd" d="M15.625 7.29176L15.5146 7.07197C14.9436 5.92984 13.7764 5.20834 12.4995 5.20834C11.2226 5.20834 10.0553 5.92984 9.48437 7.07197L9.375 7.29176H15.625Z" stroke="#B3B7EE" stroke-width="1.5" stroke-linecap="round" stroke-linejoin="round"/>
<path d="M11.5135 12.847C11.5135 12.4328 11.1777 12.097 10.7635 12.097C10.3493 12.097 10.0135 12.4328 10.0135 12.847H11.5135ZM10.0135 16.3189C10.0135 16.7331 10.3493 17.0689 10.7635 17.0689C11.1777 17.0689 11.5135 16.7331 11.5135 16.3189H10.0135ZM14.9864 12.847C14.9864 12.4328 14.6507 12.097 14.2364 12.097C13.8222 12.097 13.4864 12.4328 13.4864 12.847H14.9864ZM13.4864 16.3189C13.4864 16.7331 13.8222 17.0689 14.2364 17.0689C14.6507 17.0689 14.9864 16.7331 14.9864 16.3189H13.4864ZM15.625 6.54181C15.2108 6.54181 14.875 6.8776 14.875 7.29181C14.875 7.70602 15.2108 8.04181 15.625 8.04181V6.54181ZM17.7083 8.04181C18.1225 8.04181 18.4583 7.70602 18.4583 7.29181C18.4583 6.8776 18.1225 6.54181 17.7083 6.54181V8.04181ZM9.37499 8.04181C9.7892 8.04181 10.125 7.70602 10.125 7.29181C10.125 6.8776 9.7892 6.54181 9.37499 6.54181V8.04181ZM7.29166 6.54181C6.87744 6.54181 6.54166 6.8776 6.54166 7.29181C6.54166 7.70602 6.87744 8.04181 7.29166 8.04181V6.54181ZM10.0135 12.847V16.3189H11.5135V12.847H10.0135ZM13.4864 12.847V16.3189H14.9864V12.847H13.4864ZM15.625 8.04181H17.7083V6.54181H15.625V8.04181ZM9.37499 6.54181H7.29166V8.04181H9.37499V6.54181Z" fill="#B3B7EE"/>
</svg>
